<mxfile host="app.diagrams.net" agent="Mozilla/5.0 (X11; Linux x86_64) AppleWebKit/537.36 (KHTML, like Gecko) Chrome/131.0.0.0 Safari/537.36" version="26.0.4">
  <diagram name="Page-1" id="324GSu3pRo6lY5mASpds">
    <mxGraphModel dx="1461" dy="617" grid="1" gridSize="10" guides="1" tooltips="1" connect="1" arrows="1" fold="1" page="1" pageScale="1" pageWidth="850" pageHeight="1100" math="0" shadow="0">
      <root>
        <mxCell id="0" />
        <mxCell id="1" parent="0" />
        <mxCell id="2" value="listning" style="rounded=1;arcSize=40;strokeWidth=2" parent="1" vertex="1">
          <mxGeometry x="206" y="114" width="62" height="40" as="geometry" />
        </mxCell>
        <mxCell id="3" value="proccessing" style="rounded=1;arcSize=40;strokeWidth=2" parent="1" vertex="1">
          <mxGeometry x="204" y="300" width="72" height="40" as="geometry" />
        </mxCell>
        <mxCell id="4" value="converting" style="rounded=1;arcSize=40;strokeWidth=2" parent="1" vertex="1">
          <mxGeometry x="339" y="200" width="62" height="40" as="geometry" />
        </mxCell>
        <mxCell id="5" value="" style="ellipse;fillColor=strokeColor;" parent="1" vertex="1">
          <mxGeometry x="230" y="50" width="14" height="14" as="geometry" />
        </mxCell>
        <mxCell id="6" value="" style="curved=1;startArrow=none;;exitX=0.51;exitY=1;entryX=0.5;entryY=0;" parent="1" source="5" target="2" edge="1">
          <mxGeometry relative="1" as="geometry">
            <Array as="points" />
          </mxGeometry>
        </mxCell>
        <mxCell id="7" value="[ask text question]" style="curved=1;startArrow=none;;" parent="1" source="2" target="3" edge="1">
          <mxGeometry relative="1" as="geometry" />
        </mxCell>
        <mxCell id="8" value="send response" style="curved=1;startArrow=none;;" parent="1" source="3" target="NNij50rD12XNiyYm7Vks-41" edge="1">
          <mxGeometry x="0.0909" y="20" relative="1" as="geometry">
            <Array as="points" />
            <mxPoint x="360" y="270" as="targetPoint" />
            <mxPoint as="offset" />
          </mxGeometry>
        </mxCell>
        <mxCell id="NNij50rD12XNiyYm7Vks-12" value="" style="shape=mxgraph.sysml.actFinal;html=1;verticalLabelPosition=bottom;labelBackgroundColor=#ffffff;verticalAlign=top;" vertex="1" parent="1">
          <mxGeometry x="79" y="170" width="30" height="30" as="geometry" />
        </mxCell>
        <mxCell id="NNij50rD12XNiyYm7Vks-13" value="exit" style="curved=1;startArrow=none;;" edge="1" parent="1" source="2" target="NNij50rD12XNiyYm7Vks-12">
          <mxGeometry x="0.0146" y="-11" relative="1" as="geometry">
            <Array as="points">
              <mxPoint x="129" y="146" />
            </Array>
            <mxPoint x="159" y="110" as="sourcePoint" />
            <mxPoint x="133" y="206" as="targetPoint" />
            <mxPoint as="offset" />
          </mxGeometry>
        </mxCell>
        <mxCell id="NNij50rD12XNiyYm7Vks-15" value="[ask voice question]" style="curved=1;startArrow=none;;entryX=0.5;entryY=0;entryDx=0;entryDy=0;" edge="1" parent="1" source="2" target="4">
          <mxGeometry x="0.2427" y="-10" relative="1" as="geometry">
            <Array as="points">
              <mxPoint x="339" y="130" />
            </Array>
            <mxPoint x="399" y="58" as="sourcePoint" />
            <mxPoint x="373" y="154" as="targetPoint" />
            <mxPoint as="offset" />
          </mxGeometry>
        </mxCell>
        <mxCell id="NNij50rD12XNiyYm7Vks-16" value="ask question (text)" style="curved=1;startArrow=none;;" edge="1" parent="1" source="4" target="3">
          <mxGeometry x="-0.4315" y="-18" relative="1" as="geometry">
            <Array as="points">
              <mxPoint x="359" y="330" />
            </Array>
            <mxPoint x="409" y="292" as="sourcePoint" />
            <mxPoint x="383" y="388" as="targetPoint" />
            <mxPoint as="offset" />
          </mxGeometry>
        </mxCell>
        <mxCell id="NNij50rD12XNiyYm7Vks-19" value="listning" style="rounded=1;arcSize=40;strokeWidth=2" vertex="1" parent="1">
          <mxGeometry x="650" y="114" width="62" height="40" as="geometry" />
        </mxCell>
        <mxCell id="NNij50rD12XNiyYm7Vks-20" value="saving" style="rounded=1;arcSize=40;strokeWidth=2" vertex="1" parent="1">
          <mxGeometry x="650" y="320" width="72" height="40" as="geometry" />
        </mxCell>
        <mxCell id="NNij50rD12XNiyYm7Vks-22" value="" style="ellipse;fillColor=strokeColor;" vertex="1" parent="1">
          <mxGeometry x="674" y="50" width="14" height="14" as="geometry" />
        </mxCell>
        <mxCell id="NNij50rD12XNiyYm7Vks-23" value="" style="curved=1;startArrow=none;;exitX=0.51;exitY=1;entryX=0.5;entryY=0;" edge="1" parent="1" source="NNij50rD12XNiyYm7Vks-22" target="NNij50rD12XNiyYm7Vks-19">
          <mxGeometry relative="1" as="geometry">
            <Array as="points" />
          </mxGeometry>
        </mxCell>
        <mxCell id="NNij50rD12XNiyYm7Vks-24" value="add/update/delete document" style="curved=1;startArrow=none;;" edge="1" parent="1" source="NNij50rD12XNiyYm7Vks-19" target="NNij50rD12XNiyYm7Vks-30">
          <mxGeometry x="0.0019" relative="1" as="geometry">
            <Array as="points" />
            <mxPoint as="offset" />
            <mxPoint x="630" y="220" as="targetPoint" />
          </mxGeometry>
        </mxCell>
        <mxCell id="NNij50rD12XNiyYm7Vks-26" value="" style="shape=mxgraph.sysml.actFinal;html=1;verticalLabelPosition=bottom;labelBackgroundColor=#ffffff;verticalAlign=top;" vertex="1" parent="1">
          <mxGeometry x="671" y="400" width="30" height="30" as="geometry" />
        </mxCell>
        <mxCell id="NNij50rD12XNiyYm7Vks-27" value="" style="curved=1;startArrow=none;;" edge="1" parent="1" source="NNij50rD12XNiyYm7Vks-20" target="NNij50rD12XNiyYm7Vks-26">
          <mxGeometry relative="1" as="geometry">
            <mxPoint x="590" y="40" as="sourcePoint" />
            <mxPoint x="564" y="136" as="targetPoint" />
          </mxGeometry>
        </mxCell>
        <mxCell id="NNij50rD12XNiyYm7Vks-30" value="peroccesing" style="rounded=1;arcSize=40;strokeWidth=2" vertex="1" parent="1">
          <mxGeometry x="650" y="220" width="72" height="40" as="geometry" />
        </mxCell>
        <mxCell id="NNij50rD12XNiyYm7Vks-32" value="save updates to vector db" style="curved=1;startArrow=none;;" edge="1" parent="1" source="NNij50rD12XNiyYm7Vks-30" target="NNij50rD12XNiyYm7Vks-20">
          <mxGeometry relative="1" as="geometry">
            <mxPoint x="599" y="310" as="sourcePoint" />
            <mxPoint x="500" y="343" as="targetPoint" />
          </mxGeometry>
        </mxCell>
        <mxCell id="NNij50rD12XNiyYm7Vks-39" value="Manage document" style="shape=umlFrame;whiteSpace=wrap;html=1;pointerEvents=0;width=119;height=30;" vertex="1" parent="1">
          <mxGeometry x="531" y="20" width="300" height="450" as="geometry" />
        </mxCell>
        <mxCell id="NNij50rD12XNiyYm7Vks-40" value="ask question" style="shape=umlFrame;whiteSpace=wrap;html=1;pointerEvents=0;width=99;height=30;" vertex="1" parent="1">
          <mxGeometry x="55" y="20" width="370" height="450" as="geometry" />
        </mxCell>
        <mxCell id="NNij50rD12XNiyYm7Vks-41" value="responding" style="rounded=1;arcSize=40;strokeWidth=2" vertex="1" parent="1">
          <mxGeometry x="204" y="395" width="72" height="40" as="geometry" />
        </mxCell>
        <mxCell id="NNij50rD12XNiyYm7Vks-42" value="notify client" style="curved=1;startArrow=none;;" edge="1" parent="1" source="NNij50rD12XNiyYm7Vks-41" target="2">
          <mxGeometry x="0.2977" y="-39" relative="1" as="geometry">
            <Array as="points">
              <mxPoint x="70" y="280" />
            </Array>
            <mxPoint x="79" y="323" as="sourcePoint" />
            <mxPoint x="181" y="390" as="targetPoint" />
            <mxPoint as="offset" />
          </mxGeometry>
        </mxCell>
      </root>
    </mxGraphModel>
  </diagram>
</mxfile>
